<mxfile host="app.diagrams.net" modified="2023-02-11T08:57:15.864Z" agent="5.0 (Windows NT 10.0; Win64; x64) AppleWebKit/537.36 (KHTML, like Gecko) Chrome/109.0.0.0 Safari/537.36" etag="5fgJY3-y8VvRKwXzCL7G" version="20.8.20" type="github">
  <diagram name="PÃ¡gina-1" id="bV6VUrKlcFxC6zRNYQ0c">
    <mxGraphModel dx="1646" dy="404" grid="1" gridSize="10" guides="1" tooltips="1" connect="1" arrows="1" fold="1" page="1" pageScale="1" pageWidth="827" pageHeight="1169" math="0" shadow="0">
      <root>
        <mxCell id="0" />
        <mxCell id="1" parent="0" />
        <mxCell id="C51_ktcgHVsaQewQ_9JK-1" value="" style="whiteSpace=wrap;html=1;aspect=fixed;fillColor=none;strokeColor=#6c8ebf;movable=1;resizable=1;rotatable=1;deletable=1;editable=1;locked=0;connectable=1;" parent="1" vertex="1">
          <mxGeometry x="-40" y="250" width="390" height="390" as="geometry" />
        </mxCell>
        <mxCell id="C51_ktcgHVsaQewQ_9JK-25" value="" style="group" parent="1" vertex="1" connectable="0">
          <mxGeometry x="-140" y="365.88" width="60" height="110" as="geometry" />
        </mxCell>
        <mxCell id="C51_ktcgHVsaQewQ_9JK-39" value="" style="group" parent="C51_ktcgHVsaQewQ_9JK-25" vertex="1" connectable="0">
          <mxGeometry width="60" height="110" as="geometry" />
        </mxCell>
        <mxCell id="C51_ktcgHVsaQewQ_9JK-2" value="Actor" style="shape=umlActor;verticalLabelPosition=bottom;verticalAlign=top;html=1;outlineConnect=0;fillColor=none;" parent="C51_ktcgHVsaQewQ_9JK-39" vertex="1">
          <mxGeometry x="15" width="30" height="60" as="geometry" />
        </mxCell>
        <mxCell id="C51_ktcgHVsaQewQ_9JK-17" value="User" style="text;html=1;strokeColor=none;fillColor=none;align=center;verticalAlign=middle;whiteSpace=wrap;rounded=0;" parent="C51_ktcgHVsaQewQ_9JK-39" vertex="1">
          <mxGeometry y="80" width="60" height="30" as="geometry" />
        </mxCell>
        <mxCell id="C51_ktcgHVsaQewQ_9JK-38" value="" style="group" parent="1" vertex="1" connectable="0">
          <mxGeometry x="180" y="356" width="140" height="110" as="geometry" />
        </mxCell>
        <mxCell id="C51_ktcgHVsaQewQ_9JK-21" value="" style="group" parent="C51_ktcgHVsaQewQ_9JK-38" vertex="1" connectable="0">
          <mxGeometry width="120" height="86.67" as="geometry" />
        </mxCell>
        <mxCell id="C51_ktcgHVsaQewQ_9JK-22" value="" style="ellipse;whiteSpace=wrap;html=1;fillColor=#dae8fc;strokeColor=#6c8ebf;" parent="C51_ktcgHVsaQewQ_9JK-21" vertex="1">
          <mxGeometry x="-5" y="-5" width="130" height="86.67" as="geometry" />
        </mxCell>
        <mxCell id="C51_ktcgHVsaQewQ_9JK-23" value="Authentication" style="text;html=1;strokeColor=none;fillColor=none;align=center;verticalAlign=middle;whiteSpace=wrap;rounded=0;" parent="C51_ktcgHVsaQewQ_9JK-21" vertex="1">
          <mxGeometry x="30" y="25" width="60" height="30" as="geometry" />
        </mxCell>
        <mxCell id="C51_ktcgHVsaQewQ_9JK-36" value="&amp;lt;&amp;lt;Include&amp;gt;&amp;gt;" style="text;html=1;strokeColor=none;fillColor=none;align=center;verticalAlign=middle;whiteSpace=wrap;rounded=0;" parent="C51_ktcgHVsaQewQ_9JK-38" vertex="1">
          <mxGeometry x="80" y="80" width="60" height="30" as="geometry" />
        </mxCell>
        <mxCell id="C51_ktcgHVsaQewQ_9JK-41" value="" style="group" parent="1" vertex="1" connectable="0">
          <mxGeometry x="400" y="365.88" width="60" height="120" as="geometry" />
        </mxCell>
        <mxCell id="C51_ktcgHVsaQewQ_9JK-18" value="Actor" style="shape=umlActor;verticalLabelPosition=bottom;verticalAlign=top;html=1;outlineConnect=0;fillColor=none;" parent="C51_ktcgHVsaQewQ_9JK-41" vertex="1">
          <mxGeometry x="15" width="30" height="60" as="geometry" />
        </mxCell>
        <mxCell id="C51_ktcgHVsaQewQ_9JK-19" value="Google auth &amp;lt;&amp;lt;System&amp;gt;&amp;gt;" style="text;html=1;strokeColor=none;fillColor=none;align=center;verticalAlign=middle;whiteSpace=wrap;rounded=0;" parent="C51_ktcgHVsaQewQ_9JK-41" vertex="1">
          <mxGeometry y="90" width="60" height="30" as="geometry" />
        </mxCell>
        <mxCell id="C51_ktcgHVsaQewQ_9JK-66" style="edgeStyle=orthogonalEdgeStyle;rounded=0;orthogonalLoop=1;jettySize=auto;html=1;exitX=1;exitY=0.5;exitDx=0;exitDy=0;dashed=1;dashPattern=8 8;" parent="1" source="C51_ktcgHVsaQewQ_9JK-3" target="C51_ktcgHVsaQewQ_9JK-22" edge="1">
          <mxGeometry relative="1" as="geometry" />
        </mxCell>
        <mxCell id="C51_ktcgHVsaQewQ_9JK-3" value="" style="ellipse;whiteSpace=wrap;html=1;fillColor=#dae8fc;strokeColor=#6c8ebf;" parent="1" vertex="1">
          <mxGeometry x="-10" y="350" width="135" height="90" as="geometry" />
        </mxCell>
        <mxCell id="C51_ktcgHVsaQewQ_9JK-6" value="Programming issues" style="text;html=1;strokeColor=none;fillColor=none;align=center;verticalAlign=middle;whiteSpace=wrap;rounded=0;" parent="1" vertex="1">
          <mxGeometry x="23.75" y="360" width="67.5" height="33.75" as="geometry" />
        </mxCell>
        <mxCell id="C51_ktcgHVsaQewQ_9JK-45" value="Extension point" style="text;html=1;strokeColor=none;fillColor=none;align=center;verticalAlign=middle;whiteSpace=wrap;rounded=0;" parent="1" vertex="1">
          <mxGeometry x="23.75" y="400" width="67.5" height="33.75" as="geometry" />
        </mxCell>
        <mxCell id="C51_ktcgHVsaQewQ_9JK-49" value="" style="orthogonalLoop=1;jettySize=auto;html=1;rounded=0;entryX=1;entryY=0.5;entryDx=0;entryDy=0;shape=link;exitX=0;exitY=0.5;exitDx=0;exitDy=0;" parent="1" source="C51_ktcgHVsaQewQ_9JK-3" target="C51_ktcgHVsaQewQ_9JK-3" edge="1">
          <mxGeometry width="80" relative="1" as="geometry">
            <mxPoint x="40" y="519.46" as="sourcePoint" />
            <mxPoint x="100" y="519" as="targetPoint" />
          </mxGeometry>
        </mxCell>
        <mxCell id="C51_ktcgHVsaQewQ_9JK-67" style="edgeStyle=orthogonalEdgeStyle;rounded=0;orthogonalLoop=1;jettySize=auto;html=1;exitX=0.5;exitY=0;exitDx=0;exitDy=0;dashed=1;dashPattern=8 8;" parent="1" source="C51_ktcgHVsaQewQ_9JK-10" target="C51_ktcgHVsaQewQ_9JK-3" edge="1">
          <mxGeometry relative="1" as="geometry" />
        </mxCell>
        <mxCell id="C51_ktcgHVsaQewQ_9JK-68" value="" style="group" parent="1" vertex="1" connectable="0">
          <mxGeometry x="2" y="490" width="163" height="90" as="geometry" />
        </mxCell>
        <mxCell id="C51_ktcgHVsaQewQ_9JK-12" value="" style="group" parent="C51_ktcgHVsaQewQ_9JK-68" vertex="1" connectable="0">
          <mxGeometry width="120" height="80" as="geometry" />
        </mxCell>
        <mxCell id="C51_ktcgHVsaQewQ_9JK-10" value="" style="ellipse;whiteSpace=wrap;html=1;fillColor=#dae8fc;strokeColor=#6c8ebf;" parent="C51_ktcgHVsaQewQ_9JK-12" vertex="1">
          <mxGeometry x="-10" y="-6.67" width="130" height="86.67" as="geometry" />
        </mxCell>
        <mxCell id="C51_ktcgHVsaQewQ_9JK-11" value="Programming goals" style="text;html=1;strokeColor=none;fillColor=none;align=center;verticalAlign=middle;whiteSpace=wrap;rounded=0;" parent="C51_ktcgHVsaQewQ_9JK-12" vertex="1">
          <mxGeometry x="25" y="21.67" width="60" height="30" as="geometry" />
        </mxCell>
        <mxCell id="C51_ktcgHVsaQewQ_9JK-43" value="&amp;lt;&amp;lt;Extend&amp;gt;&amp;gt;" style="text;html=1;strokeColor=none;fillColor=none;align=center;verticalAlign=middle;whiteSpace=wrap;rounded=0;" parent="C51_ktcgHVsaQewQ_9JK-68" vertex="1">
          <mxGeometry x="103" y="60" width="60" height="30" as="geometry" />
        </mxCell>
        <mxCell id="C51_ktcgHVsaQewQ_9JK-75" style="edgeStyle=none;rounded=0;orthogonalLoop=1;jettySize=auto;html=1;exitX=0.5;exitY=0.5;exitDx=0;exitDy=0;exitPerimeter=0;entryX=0;entryY=0.5;entryDx=0;entryDy=0;" parent="1" source="C51_ktcgHVsaQewQ_9JK-2" target="C51_ktcgHVsaQewQ_9JK-3" edge="1">
          <mxGeometry relative="1" as="geometry" />
        </mxCell>
        <mxCell id="C51_ktcgHVsaQewQ_9JK-76" style="edgeStyle=none;rounded=0;orthogonalLoop=1;jettySize=auto;html=1;exitX=0.5;exitY=0.5;exitDx=0;exitDy=0;exitPerimeter=0;entryX=1;entryY=0.5;entryDx=0;entryDy=0;" parent="1" source="C51_ktcgHVsaQewQ_9JK-18" target="C51_ktcgHVsaQewQ_9JK-22" edge="1">
          <mxGeometry relative="1" as="geometry" />
        </mxCell>
      </root>
    </mxGraphModel>
  </diagram>
</mxfile>
